<svg xmlns="http://www.w3.org/2000/svg" width="338" height="66" viewBox="0 0 338 66"><path fill="#ff7f00" d="M73.228 48.344l-2.556.554c-.164.68-.423 1.35-.76 1.99-.34.634-.757 1.24-1.238 1.796-.468.54-1.018 1.03-1.59 1.406-.58.397-1.21.69-1.87.867L40.65 61.235c-.956.255-1.88.313-2.75.245-.9-.08-1.725-.324-2.478-.673-.762-.368-1.432-.88-1.974-1.486-.567-.6-.985-1.33-1.267-2.14l-4.77 1.03c.35 1.58 1.01 2.94 1.89 4.05.88 1.12 1.99 1.98 3.23 2.61 1.23.62 2.58.98 3.99 1.08 1.38.12 2.79-.04 4.2-.43l24.39-6.96c.95-.27 1.89-.75 2.79-1.39.87-.63 1.7-1.41 2.42-2.32.72-.89 1.36-1.9 1.86-3 .49-1.08.86-2.25 1.07-3.47M66.9 4.65L39.857.173c-1.6-.258-3.21-.186-4.76.183-1.58.377-3.1 1.064-4.45 2.03-1.37.982-2.55 2.244-3.47 3.76-.91 1.514-1.53 3.268-1.75 5.198l5.263.425c.25-.98.69-1.9 1.26-2.73.577-.81 1.3-1.53 2.14-2.12.81-.57 1.75-1 2.74-1.24.98-.24 2.02-.32 3.09-.17l26.82 3.43c.7.09 1.35.33 1.942.7.586.36 1.128.84 1.576 1.39.46.55.85 1.2 1.144 1.89.297.67.524 1.4.625 2.15l2.667.21c-.07-1.35-.353-2.64-.753-3.81-.42-1.2-.99-2.28-1.68-3.24-.7-.96-1.53-1.77-2.43-2.4-.92-.63-1.93-1.04-2.95-1.22"/><path fill="#fff" d="M42.4 49.35l-.403-30.6 23.01.883-.728 25.87L42.4 49.35m23.982-36.56l-26.197-2.513c-.763-.062-1.494.04-2.158.305-.67.287-1.27.703-1.782 1.267-.504.55-.912 1.23-1.184 2.01-.27.76-.42 1.63-.39 2.53l.05 1.53L9.8 16.88c-.19-.01-.35.02-.513.08-.137.04-.28.132-.376.25-.11.1-.21.24-.26.39-.05.14-.07.31-.05.475l.07 1.05L1 18.912c-.14-.007-.28.016-.405.063-.107.037-.224.107-.317.196-.093.09-.15.19-.193.3-.056.12-.07.24-.06.38l.22 2.61c.013.14.055.26.12.38.07.12.147.22.25.3.11.1.23.17.35.22.138.04.27.06.42.07l7.587.03.08 1.03c.014.18.06.33.143.49.08.14.17.28.3.39.113.1.27.19.43.26.15.07.33.1.5.1l24.48-.23.167 5.97-24.16 1.15c-.18.01-.337.05-.49.12-.14.07-.274.15-.384.27-.1.12-.185.25-.24.4-.06.14-.08.3-.07.46l.078.99-7.396.45c-.15.01-.27.04-.39.1-.13.06-.22.13-.31.22-.093.09-.164.2-.195.3-.04.12-.05.25-.045.36l.21 2.47c.01.13.057.23.12.35.05.11.137.19.24.27.1.08.207.14.34.18.13.04.25.05.395.04l7.326-.63.07.99c.01.16.06.31.13.43.08.15.18.25.31.35.11.1.26.18.4.22.16.03.32.05.49.03l23.75-2.29.16 5.76-23.44 3.17c-.17.02-.33.07-.46.14-.15.08-.26.19-.38.3-.1.12-.17.26-.23.4-.06.15-.08.3-.07.46l.08.93-7.15 1.04c-.14.02-.26.06-.38.13-.12.05-.21.13-.29.22-.09.1-.16.19-.2.31-.03.12-.04.22-.04.35l.2 2.31c.02.12.05.22.12.32.04.1.13.18.23.25.11.05.2.1.33.12.13.03.24.03.39 0l7.08-1.19.07.92c.01.15.05.29.12.41.07.11.17.22.28.3.12.09.26.13.4.16.15.03.31.04.48.01l23.06-4.16.04 1.07c.02.8.2 1.52.49 2.15.29.62.69 1.16 1.17 1.57.49.39 1.06.68 1.67.83.63.15 1.31.15 2-.01l24.27-5.5c.47-.1.93-.34 1.35-.67.4-.31.78-.71 1.09-1.19.32-.48.59-1.01.77-1.58.18-.58.3-1.19.33-1.82l.03-.84L80 43.35c.07-.01.11-.04.17-.09.06-.04.11-.1.16-.17.04-.07.08-.13.1-.22.02-.09.036-.17.04-.27l.04-.57 2.41-.394c.04-.01.08-.03.124-.06.04-.03.08-.08.096-.13.03-.05.07-.09.08-.16.02-.06.03-.13.04-.2l.09-1.33c.007-.07 0-.12-.02-.18-.01-.06-.03-.11-.06-.15-.02-.04-.05-.072-.09-.083-.04-.016-.06-.02-.11-.02l-2.42.34.037-.57c.01-.1 0-.175-.02-.256-.01-.08-.05-.157-.08-.2-.04-.06-.09-.106-.14-.136-.04-.03-.1-.04-.16-.04L69 39.96l.8-21.685c.03-.7-.05-1.37-.19-1.99-.16-.61-.39-1.2-.69-1.68-.3-.5-.672-.92-1.094-1.22-.424-.3-.89-.48-1.4-.53"/><path fill="#ff7f00" d="M80.75 29.308l-9.29.46-.22 5.49 9.223-.888c.067-.008.128-.03.188-.078.06-.04.1-.1.15-.155.05-.07.09-.15.12-.244.03-.072.05-.17.06-.272l.04-.57 2.43-.21c.04 0 .09-.01.13-.04.04-.03.08-.07.11-.12.03-.05.06-.1.08-.16.02-.06.02-.12.03-.2l.09-1.37c.01-.07 0-.13-.01-.19s-.03-.12-.06-.16c-.02-.04-.04-.08-.08-.09-.03-.02-.08-.03-.12-.03l-2.45.15.03-.59c.01-.1 0-.19-.02-.27-.02-.09-.04-.17-.08-.23-.02-.05-.07-.1-.12-.14-.05-.04-.12-.05-.18-.05m.56-9.44l-9.43-.4-.24 5.71 9.37-.08c.06 0 .11-.01.17-.04.06-.04.12-.09.16-.17.05-.06.07-.14.1-.22.03-.09.05-.19.06-.28l.04-.62 2.47.01c.04 0 .09-.01.11-.03.04-.02.08-.06.12-.11.03-.05.06-.11.08-.17.02-.06.04-.11.04-.19l.09-1.42v-.2c-.01-.07-.03-.13-.06-.18-.03-.05-.06-.09-.1-.1-.04-.03-.08-.05-.13-.05l-2.46-.08.04-.6c.01-.11 0-.21-.02-.29-.02-.09-.05-.18-.09-.25-.04-.07-.08-.11-.14-.16-.05-.04-.1-.06-.16-.07"/><path fill="#fff" d="M197 47.02h-5V23.81c0-.804.165-1.573.472-2.272.304-.688.717-1.303 1.236-1.813.507-.524 1.116-.928 1.812-1.234.7-.3 1.472-.47 2.27-.47h12.423c.77 0 1.527.17 2.24.47.71.31 1.33.71 1.84 1.24.525.52.93 1.13 1.238 1.82.32.7.47 1.47.47 2.27v1.21h-5v-.42c0-.44-.15-.82-.45-1.12-.3-.3-.67-.46-1.12-.46h-10.84c-.44 0-.82.16-1.12.46-.3.3-.46.68-.46 1.12v22.42z"/><path fill="#ff7f00" d="M283 47.02h-2.304c-.785 0-1.53-.156-2.214-.448-.53-.224-1.022-1.178-1.48-1.552-.442.348-.923 1.277-1.465 1.487-.68.273-1.147.513-1.896.513H262c-.784 0-1.78-.255-2.48-.563-.69-.31-1.313-.716-1.815-1.24-.515-.506-.933-1.115-1.235-1.813-.308-.695-.47-1.45-.47-2.22V23.808c0-.768.162-1.53.47-2.242.303-.71.72-1.33 1.238-1.84.505-.524 1.124-.93 1.808-1.236.706-.31 1.46-.47 2.243-.47h12.49c.78 0 1.52.16 2.22.47.69.305 1.3.71 1.83 1.235.51.515.93 1.135 1.23 1.84.31.715.45 1.478.45 2.243v16.77c.05.362.22.705.52.994.3.284.64.44 1.06.447H283v5zm-20.447-24c-.434 0-.79.16-1.092.46-.3.302-.46.674-.46 1.123V40.44c0 .45.16.82.46 1.125.31.3.66.455 1.1.455h10.91c.41 0 .74-.14 1.03-.417.3-.29.46-.63.51-1.052V24.61c0-.447-.13-.818-.43-1.123-.3-.3-.66-.46-1.09-.46h-10.92zm69.657 24h-12.417c-.8 0-1.57-.164-2.273-.473-.7-.31-1.31-.716-1.812-1.24-.523-.506-.934-1.12-1.235-1.813-.308-.695-.472-1.468-.472-2.268V24.02c0-.776.17-1.537.48-2.25.31-.696.72-1.33 1.24-1.84.51-.512 1.12-.933 1.81-1.237.7-.31 1.68-.673 2.48-.673h12.42c.77 0 1.32.164 2.04.472.71.306 1.33.73 1.84 1.24.53.51.94 1.142 1.24 1.836.32.72.47 1.48.47 2.254v17.405c0 .797-.15 1.57-.47 2.268-.31.698-.71 1.31-1.23 1.815-.5.522-1.12.93-1.84 1.24-.72.306-1.48.47-2.24.47zm-11.626-24c-.45 0-.822.155-1.124.46-.302.302-.46.673-.46 1.132v15.824c0 .45.155.82.458 1.125.304.31.68.46 1.126.46h10.834c.445 0 .818-.15 1.124-.46.304-.3.46-.67.46-1.12V24.61c0-.458-.156-.83-.46-1.132-.306-.304-.68-.46-1.124-.46h-10.834z"/><path d="M183 40.474c0 .43-.152.786-.457 1.09-.306.302-.678.456-1.124.456h-10.91c-.43-.023-.78-.19-1.08-.496-.29-.305-.44-.665-.44-1.087V28.02h-5v13.21c0 .77.14 1.52.44 2.218.29.695.69 1.31 1.21 1.817.5.526 1.1.932 1.78 1.238.68.31 1.42.485 2.26.517h13.52c.56-.097 1.09-.268 1.6-.518.64-.323 1.2-.76 1.64-1.272.45-.52.82-1.1 1.09-1.743.27-.652.42-1.365.42-2.11V40.02h-5v.454zM164 18.02h24v5h-24z" fill="#fff"/><path fill="#ff7f00" d="M304 14.02v26.416c0 .45-.154.82-.454 1.125-.305.31-.68.46-1.137.46h-9.83c-.45 0-.82-.15-1.12-.46-.31-.3-.46-.67-.46-1.12V24.61c0-.458.15-.83.46-1.132.3-.304.67-.46 1.12-.46H299v-5h-7c-.8 0-1.78.365-2.482.674-.688.303-1.3.723-1.808 1.236-.53.51-.94 1.143-1.256 1.84-.307.714-.453 1.474-.453 2.25v17.208c0 .804.15 1.572.46 2.268.32.698.73 1.31 1.25 1.813.5.524 1.12.93 1.81 1.24.71.31 1.48.473 2.27.473h12.41c.78 0 1.54-.164 2.26-.472.7-.308 1.34-.717 1.84-1.24.51-.507.93-1.12 1.23-1.814.31-.702.48-1.47.48-2.268V14.02h-6zm-171 33h-.515c-.777 0-2.31-.162-3.01-.47-.697-.307-1.308-.717-1.827-1.267-.52-.522-.933-1.145-1.22-1.836-.292-.697-.428-1.45-.428-2.218V13.02h5v27.387c0 .422.132.782.425 1.087.294.306.65.474 1.09.496l.486.03v5zm-13.593-10.447c.675-.29 1.274-.686 1.8-1.16.51-.49.937-1.067 1.26-1.728.326-.67.5-1.404.534-2.195l-.02-7.71c0-.785-.14-1.53-.45-2.226-.3-.69-.73-1.303-1.25-1.83-.51-.51-1.13-.93-1.84-1.235-.71-.31-1.46-.47-2.24-.47h-12.39c-.81 0-1.58.16-2.27.47-.69.3-1.31.72-1.82 1.23-.51.53-.93 1.14-1.23 1.85-.31.69-.47 1.46-.47 2.24V41.2c0 .818.17 1.576.47 2.27.31.693.73 1.303 1.23 1.83.52.51 1.14.93 1.83 1.237.69.304 1.46.47 2.28.47h12.38c.79 0 1.53-.165 2.25-.47.71-.306 1.33-.73 1.84-1.237.52-.527.95-1.134 1.25-1.83.31-.694.46-2.454.46-3.27v-.195h-4.21v.43c0 .462-.14.836-.45 1.14-.3.304-.66.44-1.12.44l-11.58-.01c-.46 0-.84-.14-1.14-.44-.3-.306-.46-1.098-.46-1.56v-15c0-.466-.04-1.25.26-1.56.3-.3.67-.44 1.14-.44h11.02c.46 0 .82.14 1.12.44.32.307.46.677.46 1.14l.21 5.893c-.02.44-.18.794-.49 1.09-.3.29-.66.435-1.09.435h-12.63v5h13.21c.79 0 1.51-.16 2.2-.448zM253 47.02h-.515c-.777 0-2.31-.162-3.01-.47-.697-.307-1.308-.717-1.827-1.267-.52-.522-.933-1.145-1.22-1.836-.292-.697-.428-1.45-.428-2.218V13.02h5v27.386c0 .422.132.782.425 1.087.294.306.65.474 1.09.496l.486.03v5z"/><path fill="#fff" d="M237.21 47.02h-12.417c-.8 0-1.57-.164-2.273-.473-.7-.31-1.31-.716-1.812-1.24-.523-.506-.934-1.12-1.235-1.813-.308-.695-.472-1.468-.472-2.268V24.02c0-.776.17-1.537.48-2.25.31-.696.72-1.33 1.24-1.84.51-.512 1.12-.933 1.81-1.237.7-.31 1.68-.673 2.48-.673h12.42c.77 0 1.32.164 2.04.472.71.306 1.33.73 1.84 1.24.53.51.94 1.142 1.24 1.836.32.72.47 1.48.47 2.254v17.405c0 .797-.15 1.57-.47 2.268-.31.698-.71 1.31-1.23 1.815-.5.522-1.12.93-1.84 1.24-.72.306-1.48.47-2.24.47zm-11.626-24c-.45 0-.822.155-1.124.46-.302.302-.46.673-.46 1.132v15.824c0 .45.155.82.458 1.125.304.31.68.46 1.126.46h10.834c.445 0 .818-.15 1.124-.46.304-.3.46-.67.46-1.12V24.61c0-.458-.156-.83-.46-1.132-.306-.304-.68-.46-1.124-.46h-10.834zm-71.374 24h-12.417c-.8 0-1.57-.164-2.273-.473-.7-.31-1.31-.716-1.812-1.24-.523-.506-.934-1.12-1.235-1.813-.308-.695-.472-1.468-.472-2.268V24.02c0-.776.17-1.537.48-2.25.31-.696.72-1.33 1.24-1.84.51-.512 1.12-.933 1.81-1.237.7-.31 1.68-.673 2.48-.673h12.42c.77 0 1.32.164 2.04.472.71.306 1.33.73 1.84 1.24.53.51.94 1.142 1.24 1.836.32.72.47 1.48.47 2.254v17.405c0 .797-.15 1.57-.47 2.268-.31.698-.71 1.31-1.23 1.815-.5.522-1.12.93-1.84 1.24-.72.306-1.48.47-2.24.47zm-11.626-24c-.45 0-.822.155-1.124.46-.302.302-.46.673-.46 1.132v15.824c0 .45.155.82.458 1.125.304.31.68.46 1.126.46h10.834c.445 0 .818-.15 1.124-.46.304-.3.46-.67.46-1.12V24.61c0-.458-.156-.83-.46-1.132-.306-.304-.68-.46-1.124-.46h-10.834z"/></svg>